<svg width="14" height="15" viewBox="0 0 14 15" fill="none" xmlns="http://www.w3.org/2000/svg">
<path opacity="0.2" d="M14 7.93167C14 11.8028 10.8661 14.9395 7 14.9395C3.1339 14.9395 0 11.8028 0 7.93167C0 4.06194 3.1339 0.923828 7 0.923828C10.8661 0.923828 14 4.06194 14 7.93167Z" fill="white"/>
<path d="M9.5015 10.6048C9.4098 10.6048 9.3174 10.5809 9.2327 10.5312L6.4845 8.88994C6.3263 8.79464 6.229 8.62294 6.229 8.43794V4.90108C6.229 4.61095 6.4642 4.37549 6.754 4.37549C7.0438 4.37549 7.279 4.61095 7.279 4.90108V8.1394L9.771 9.62717C10.0195 9.77643 10.1014 10.0988 9.953 10.3483C9.8543 10.513 9.68 10.6048 9.5015 10.6048Z" fill="white"/>
</svg>
